<svg width="150" height="217" viewBox="0 0 150 217" fill="none" xmlns="http://www.w3.org/2000/svg">
<path d="M0 30C0 13.4315 13.4315 0 30 0H120C136.569 0 150 13.4315 150 30V163H0V30Z" fill="#7EF67E"/>
<path d="M27 3.5H123C135.979 3.5 146.5 14.0213 146.5 27V182C146.5 190.008 140.008 196.5 132 196.5H21C11.335 196.5 3.5 188.665 3.5 179V27C3.5 14.0213 14.0213 3.5 27 3.5Z" stroke="black" stroke-width="7"/>
<path d="M21 161.5H146.5V182C146.5 190.008 140.008 196.5 132 196.5H21C11.335 196.5 3.5 188.665 3.5 179C3.5 169.335 11.335 161.5 21 161.5Z" fill="white" stroke="black" stroke-width="7"/>
<path d="M25 178.5H125" stroke="black" stroke-width="7" stroke-linecap="round"/>
<path d="M47.6128 96.7036L103.139 96.6614M74.9983 31C83.9939 31 91.5074 37.3316 93.3366 45.7785C95.7149 45.1349 98.1967 44.966 100.64 45.2815C103.084 45.597 105.441 46.3908 107.578 47.6174C109.715 48.844 111.59 50.4795 113.094 52.4305C114.599 54.3815 115.705 56.6098 116.349 58.9882C116.992 61.3665 117.161 63.8484 116.846 66.292C116.53 68.7356 115.736 71.0931 114.51 73.23C113.283 75.3668 111.648 77.2412 109.697 78.746C107.746 80.2507 105.517 81.3565 103.139 82.0001V115.422H46.8577V82.0001C44.4793 81.3559 42.2512 80.2495 40.3004 78.7442C38.3496 77.2388 36.7145 75.364 35.4883 73.2267C34.2621 71.0894 33.4689 68.7315 33.1539 66.2876C32.839 63.8438 33.0084 61.3618 33.6527 58.9835C34.2969 56.6051 35.4033 54.377 36.9087 52.4262C38.414 50.4754 40.2889 48.8403 42.4262 47.6141C44.5635 46.3879 46.9214 45.5947 49.3652 45.2797C51.8091 44.9648 54.291 45.1343 56.6694 45.7785C57.5785 41.5929 59.8925 37.8444 63.2268 35.1559C66.5612 32.4675 70.7151 31.0009 74.9983 31Z" stroke="black" stroke-width="6" stroke-linecap="round" stroke-linejoin="round"/>
<path d="M74.9983 31C83.9939 31 91.5074 37.3316 93.3366 45.7785C95.7149 45.1349 98.1967 44.966 100.64 45.2815C103.084 45.597 105.441 46.3908 107.578 47.6174C109.715 48.844 111.59 50.4795 113.094 52.4305C114.599 54.3815 115.705 56.6098 116.349 58.9882C116.992 61.3665 117.161 63.8484 116.846 66.292C116.53 68.7356 115.736 71.0931 114.51 73.23C113.283 75.3668 111.648 77.2412 109.697 78.746C107.746 80.2507 105.517 81.3565 103.139 82.0001V115.422H46.8577V82.0001C44.4793 81.3559 42.2512 80.2495 40.3004 78.7442C38.3496 77.2388 36.7145 75.364 35.4883 73.2267C34.2621 71.0894 33.4689 68.7315 33.1539 66.2876C32.839 63.8438 33.0084 61.3618 33.6527 58.9835C34.2969 56.6051 35.4033 54.377 36.9087 52.4262C38.414 50.4754 40.2889 48.8403 42.4262 47.6141C44.5635 46.3879 46.9214 45.5947 49.3652 45.2797C51.8091 44.9648 54.291 45.1343 56.6694 45.7785C57.5785 41.5929 59.8925 37.8444 63.2268 35.1559C66.5612 32.4675 70.7151 31.0009 74.9983 31ZM47.6128 96.7036L103.139 96.6614Z" fill="white"/>
<path d="M47.6128 96.7036L103.139 96.6614M74.9983 31C83.9939 31 91.5074 37.3316 93.3366 45.7785C95.7149 45.1349 98.1967 44.966 100.64 45.2815C103.084 45.597 105.441 46.3908 107.578 47.6174C109.715 48.844 111.59 50.4795 113.094 52.4305C114.599 54.3815 115.705 56.6098 116.349 58.9882C116.992 61.3665 117.161 63.8484 116.846 66.292C116.53 68.7356 115.736 71.0931 114.51 73.23C113.283 75.3668 111.648 77.2412 109.697 78.746C107.746 80.2507 105.517 81.3565 103.139 82.0001V115.422H46.8577V82.0001C44.4793 81.3559 42.2512 80.2495 40.3004 78.7442C38.3496 77.2388 36.7145 75.364 35.4883 73.2267C34.2621 71.0894 33.4689 68.7315 33.1539 66.2876C32.839 63.8438 33.0084 61.3618 33.6527 58.9835C34.2969 56.6051 35.4033 54.377 36.9087 52.4262C38.414 50.4754 40.2889 48.8403 42.4262 47.6141C44.5635 46.3879 46.9214 45.5947 49.3652 45.2797C51.8091 44.9648 54.291 45.1343 56.6694 45.7785C57.5785 41.5929 59.8925 37.8444 63.2268 35.1559C66.5612 32.4675 70.7151 31.0009 74.9983 31Z" stroke="black" stroke-width="6" stroke-linecap="round" stroke-linejoin="round"/>
<path d="M48.5476 199.722L36 210.477V179H65V210.477L52.4524 199.722L50.5 198.049L48.5476 199.722Z" fill="#FBB75F" stroke="black" stroke-width="6"/>
</svg>
