<?xml version="1.0" encoding="UTF-8"?>
<!--Generator: Apple Native CoreSVG 232.5-->
<!DOCTYPE svg
PUBLIC "-//W3C//DTD SVG 1.1//EN"
       "http://www.w3.org/Graphics/SVG/1.1/DTD/svg11.dtd">
<svg version="1.1" xmlns="http://www.w3.org/2000/svg" xmlns:xlink="http://www.w3.org/1999/xlink" width="31.87" height="37.2413">
 <g>
  <rect height="37.2413" opacity="0" width="31.87" x="0" y="0"/>
  <path d="M29.4061 9.11234L29.4061 30.8155C29.4061 33.9956 27.8062 35.5982 24.6726 35.5982L14.412 35.5982C16.8696 35.2313 19.3896 34.7084 22.0635 33.9546C25.1584 33.0523 26.5761 31.0162 26.5761 27.4791L26.5761 6.06811C26.5761 5.52439 26.5316 5.01256 26.4438 4.53645C28.4092 5.06725 29.4061 6.60203 29.4061 9.11234Z" fill="#ffd60a" fill-opacity="0.5"/>
  <path d="M2.09765 30.3403C2.09765 32.9893 3.7456 34.4263 6.5953 34.252C11.5198 33.983 16.1525 33.4261 21.4793 31.9355C23.6754 31.3047 24.4758 30.0769 24.4758 27.4791L24.4758 6.06811C24.4758 3.01596 22.766 1.57661 19.8375 2.26743C15.786 3.19555 11.2693 3.9517 6.133 4.2646C3.65712 4.4269 2.09765 5.79301 2.09765 8.49711ZM4.84627 29.8654L4.84627 8.5598C4.84627 7.46644 5.53944 7.01204 6.53788 6.95608C11.3344 6.69768 15.7658 5.94417 19.7768 5.02278C21.0047 4.74417 21.7298 5.38402 21.7298 6.58373L21.7298 27.3886C21.7298 28.6203 21.3416 29.1971 20.2849 29.4769C15.9451 30.7118 11.5137 31.2517 6.71102 31.506C5.54998 31.562 4.84627 30.9702 4.84627 29.8654Z" fill="#ffd60a"/>
  <path d="M8.03729 12.1812C12.0589 11.9122 15.2853 11.3489 18.564 10.6135C19.2562 10.4565 19.4227 10.1011 19.4227 9.68304C19.4227 9.21048 19.0553 8.79124 18.3817 8.92835C15.2669 9.62503 12.0483 10.2004 8.02938 10.4641C7.42498 10.5133 7.15076 10.886 7.15076 11.3506C7.15076 11.8378 7.51551 12.2105 8.03729 12.1812ZM8.03729 16.7319C12.0589 16.4603 15.2853 15.8875 18.564 15.1642C19.2562 15.0072 19.4227 14.6518 19.4227 14.2311C19.4227 13.7585 19.0553 13.3419 18.3817 13.479C15.2669 14.1757 12.0483 14.7485 8.02938 15.0148C7.42498 15.0587 7.15076 15.434 7.15076 15.8867C7.15076 16.3791 7.51551 16.7585 8.03729 16.7319ZM8.03729 21.2799C12.0589 21.011 15.2853 20.4356 18.564 19.7122C19.2562 19.5552 19.4227 19.1998 19.4227 18.7818C19.4227 18.3092 19.0553 17.8873 18.3817 18.0271C15.2669 18.7211 12.0483 19.2965 8.02938 19.5628C7.42498 19.6121 7.15076 19.9847 7.15076 20.4373C7.15076 20.9219 7.51551 21.3092 8.03729 21.2799ZM8.03729 25.8133C10.3816 25.6815 11.9335 25.4524 13.447 25.206C13.9515 25.1155 14.2204 24.7162 14.2204 24.3195C14.2204 23.8589 13.8557 23.413 13.1648 23.5381C11.8271 23.7526 10.3271 23.967 8.02938 24.0989C7.42498 24.1402 7.15076 24.5155 7.15076 24.9734C7.15076 25.4606 7.51551 25.8426 8.03729 25.8133Z" fill="#ffd60a"/>
 </g>
</svg>
