<svg width="43" height="53" viewBox="0 0 43 53" fill="none" xmlns="http://www.w3.org/2000/svg">
<g clip-path="url(#clip0_67_26)">
<path d="M7.86864 52.8286H39.6255C40.8974 52.8286 41.8818 51.8642 41.8818 50.5722C41.8818 49.4892 41.1421 48.6929 40.2202 48.2793C37.2231 46.9575 36.6235 42.8242 39.6816 39.8911C40.8862 38.8096 41.8642 37.6045 41.8642 35.1367V8.01707C41.8642 2.76317 39.1694 0.00390625 33.9355 0.00390625H7.9287C2.69921 0.00390625 0 2.74316 0 8.01707V44.9155C0 50.1294 2.71923 52.8286 7.86864 52.8286ZM4.78317 37.1353V8.31443C4.78317 6.0444 5.95407 4.79147 8.31052 4.79147H33.5381C35.9102 4.79147 37.0811 6.0444 37.0811 8.31443V34.4151C37.0811 35.5928 36.4077 36.2661 35.1811 36.2661H8.49461C7.03952 36.2661 5.80465 36.564 4.78317 37.1353ZM8.48386 48.3003C5.89499 48.3003 4.54148 46.8457 4.54148 44.5352C4.54148 42.3291 6.09958 40.7944 8.66843 40.7944H33.0889C33.3711 40.7944 33.6377 40.7744 33.8599 40.7344C32.6729 43.3086 32.8242 46.0996 34.1094 48.3003H8.48386ZM7.65084 38.5196H11.0996V3.58884H7.65084V38.5196Z" fill="white" fill-opacity="0.85"/>
<g clip-path="url(#clip1_67_26)">
<path d="M19.8435 29.8158C20.5462 29.8158 20.9794 29.4182 20.9714 28.7415L20.8091 19.7085C20.8077 19.3879 20.9201 19.195 21.183 19.0747C22.2697 18.588 22.7485 18.0758 22.6855 16.6018L22.458 11.7184C22.4392 11.3418 22.2205 11.1253 21.8721 11.1253C21.5368 11.1253 21.3325 11.3527 21.3354 11.7358L21.3927 16.4751C21.3955 16.7641 21.2201 16.9424 20.9556 16.9424C20.6817 16.9424 20.4961 16.7735 20.4947 16.4975L20.4121 11.5851C20.4041 11.2208 20.1905 11 19.8435 11C19.4966 11 19.2895 11.2208 19.2815 11.5851L19.2003 16.4975C19.1989 16.7707 19.0119 16.9424 18.7379 16.9424C18.4734 16.9424 18.2915 16.7641 18.2929 16.4751L18.3531 11.7358C18.3545 11.3527 18.1582 11.1253 17.8164 11.1253C17.468 11.1253 17.2478 11.3433 17.229 11.7184L17.0066 16.6018C16.9371 18.0758 17.4173 18.588 18.5055 19.0747C18.7684 19.195 18.8794 19.3879 18.8779 19.7085L18.7222 28.7415C18.7113 29.4196 19.1437 29.8158 19.8435 29.8158ZM26.1795 22.7623L26.0236 28.7088C26.0011 29.4196 26.4452 29.8158 27.1384 29.8158C27.8491 29.8158 28.2794 29.4458 28.2794 28.7822V11.6209C28.2794 11.21 28.0018 11 27.6904 11C27.3803 11 27.1738 11.1637 26.9115 11.5442C25.6108 13.3645 24.7184 16.8773 24.7184 20.059V20.484C24.7184 21.0556 24.9134 21.4565 25.3565 21.7497L25.7795 22.037C26.0737 22.2392 26.194 22.4523 26.1795 22.7623Z" fill="white" fill-opacity="0.85"/>
</g>
</g>
<defs>
<clipPath id="clip0_67_26">
<rect width="42.2236" height="52.8291" fill="white"/>
</clipPath>
<clipPath id="clip1_67_26">
<rect width="11.3896" height="20" fill="white" transform="translate(17 11)"/>
</clipPath>
</defs>
</svg>
