<svg width="648" height="633" viewBox="0 0 648 633" fill="none" xmlns="http://www.w3.org/2000/svg">
<g clip-path="url(#clip0_104_112)">
<path d="M411.146 142.175H236.637C232.66 142.179 228.847 143.761 226.035 146.573C223.223 149.385 221.641 153.198 221.637 157.175V545.025L219.637 545.635L176.827 558.745C174.798 559.363 172.606 559.152 170.733 558.156C168.86 557.161 167.459 555.462 166.837 553.435L39.4965 137.485C38.8768 135.456 39.0881 133.264 40.0838 131.391C41.0795 129.517 42.7782 128.116 44.8066 127.495L110.777 107.295L302.027 48.7546L367.997 28.5546C369 28.2456 370.056 28.1377 371.101 28.2369C372.147 28.3361 373.163 28.6406 374.091 29.1329C375.019 29.6251 375.84 30.2956 376.509 31.1058C377.177 31.916 377.68 32.8501 377.987 33.8546L410.537 140.175L411.146 142.175Z" fill="#E5E5CA"/>
<path d="M449.226 140.174L409.996 12.0335C409.344 9.89845 408.277 7.91293 406.856 6.19041C405.436 4.46788 403.69 3.04212 401.718 1.99458C399.747 0.947035 397.588 0.298239 395.366 0.0852906C393.143 -0.127658 390.901 0.0994124 388.766 0.753503L296.016 29.1435L104.776 87.6935L12.0265 116.094C7.71782 117.417 4.1101 120.395 1.99524 124.375C-0.119617 128.356 -0.568843 133.012 0.746189 137.324L134.826 575.254C135.895 578.734 138.05 581.78 140.977 583.945C143.903 586.11 147.446 587.28 151.087 587.284C152.771 587.284 154.447 587.032 156.056 586.534L219.636 567.074L221.636 566.454V564.364L219.636 564.974L155.466 584.624C151.663 585.783 147.555 585.386 144.044 583.521C140.533 581.656 137.905 578.474 136.736 574.674L2.6666 136.734C2.08769 134.85 1.88592 132.872 2.07285 130.91C2.25977 128.949 2.8317 127.044 3.75592 125.304C4.68014 123.565 5.9385 122.024 7.4589 120.771C8.97929 119.519 10.7319 118.578 12.6163 118.004L105.366 89.6035L296.607 31.0635L389.357 2.66352C390.786 2.22732 392.272 2.00491 393.766 2.00352C396.973 2.01072 400.094 3.04468 402.671 4.95394C405.248 6.86321 407.146 9.54746 408.087 12.6135L447.136 140.174L447.756 142.174H449.837L449.226 140.174Z" fill="#0B4619"/>
<path d="M122.681 127.821C120.754 127.82 118.878 127.201 117.328 126.055C115.778 124.909 114.636 123.297 114.07 121.455L101.189 79.383C100.843 78.2529 100.723 77.0656 100.836 75.8891C100.949 74.7126 101.292 73.5698 101.847 72.526C102.401 71.4822 103.156 70.5578 104.068 69.8058C104.979 69.0537 106.03 68.4886 107.161 68.1427L283.1 14.279C285.382 13.5825 287.847 13.82 289.955 14.9394C292.062 16.0588 293.64 17.9686 294.34 20.2497L307.221 62.3219C307.917 64.6043 307.679 67.0696 306.56 69.1769C305.44 71.2842 303.531 72.8615 301.25 73.5627L125.311 127.426C124.459 127.688 123.572 127.821 122.681 127.821Z" fill="#116530"/>
<path d="M190.154 44.9551C201.2 44.9551 210.154 36.0008 210.154 24.9551C210.154 13.9094 201.2 4.95508 190.154 4.95508C179.109 4.95508 170.154 13.9094 170.154 24.9551C170.154 36.0008 179.109 44.9551 190.154 44.9551Z" fill="#116530"/>
<path d="M190.153 37.6183C197.147 37.6183 202.818 31.9482 202.818 24.9537C202.818 17.9592 197.147 12.2891 190.153 12.2891C183.158 12.2891 177.488 17.9592 177.488 24.9537C177.488 31.9482 183.158 37.6183 190.153 37.6183Z" fill="#E5E5CA"/>
<path d="M602.637 582.174H264.637C262.383 582.171 260.223 581.275 258.629 579.681C257.036 578.088 256.139 575.927 256.137 573.674V168.674C256.139 166.42 257.036 164.26 258.629 162.666C260.223 161.073 262.383 160.176 264.637 160.174H602.637C604.89 160.176 607.051 161.073 608.644 162.666C610.238 164.26 611.134 166.42 611.137 168.674V573.674C611.134 575.927 610.238 578.088 608.644 579.681C607.051 581.275 604.89 582.171 602.637 582.174Z" fill="#E5E5CA"/>
<path d="M447.137 140.174H236.637C232.13 140.18 227.81 141.973 224.623 145.16C221.436 148.347 219.643 152.667 219.637 157.174V564.974L221.637 564.364V157.174C221.642 153.197 223.223 149.385 226.035 146.573C228.847 143.761 232.66 142.179 236.637 142.174H447.757L447.137 140.174ZM630.637 140.174H236.637C232.13 140.18 227.81 141.973 224.623 145.16C221.436 148.347 219.643 152.667 219.637 157.174V615.174C219.643 619.681 221.436 624.001 224.623 627.188C227.81 630.374 232.13 632.167 236.637 632.174H630.637C635.143 632.167 639.464 630.374 642.651 627.188C645.837 624.001 647.63 619.681 647.637 615.174V157.174C647.63 152.667 645.837 148.347 642.651 145.16C639.464 141.973 635.143 140.18 630.637 140.174ZM645.637 615.174C645.632 619.151 644.05 622.963 641.238 625.775C638.426 628.587 634.613 630.169 630.637 630.174H236.637C232.66 630.169 228.847 628.587 226.035 625.775C223.223 622.963 221.642 619.151 221.637 615.174V157.174C221.642 153.197 223.223 149.385 226.035 146.573C228.847 143.761 232.66 142.179 236.637 142.174H630.637C634.613 142.179 638.426 143.761 641.238 146.573C644.05 149.385 645.632 153.197 645.637 157.174V615.174Z" fill="#0B4619"/>
<path d="M525.637 184.174H341.637C339.251 184.171 336.963 183.222 335.276 181.535C333.588 179.848 332.639 177.56 332.637 175.174V131.174C332.639 128.788 333.589 126.5 335.276 124.813C336.963 123.126 339.251 122.177 341.637 122.174H525.637C528.023 122.177 530.31 123.126 531.998 124.813C533.685 126.5 534.634 128.788 534.637 131.174V175.174C534.634 177.56 533.685 179.848 531.998 181.535C530.31 183.222 528.023 184.171 525.637 184.174Z" fill="#116530"/>
<path d="M433.637 125.174C444.682 125.174 453.637 116.22 453.637 105.174C453.637 94.1281 444.682 85.1738 433.637 85.1738C422.591 85.1738 413.637 94.1281 413.637 105.174C413.637 116.22 422.591 125.174 433.637 125.174Z" fill="#116530"/>
<path d="M433.637 117.356C440.365 117.356 445.819 111.902 445.819 105.174C445.819 98.4462 440.365 92.9922 433.637 92.9922C426.909 92.9922 421.455 98.4462 421.455 105.174C421.455 111.902 426.909 117.356 433.637 117.356Z" fill="#E5E5CA"/>
</g>
<defs>
<clipPath id="clip0_104_112">
<rect width="647.636" height="632.174" fill="white"/>
</clipPath>
</defs>
</svg>
