<svg xmlns="http://www.w3.org/2000/svg" viewBox="0 0 32 40" x="0px" y="0px"><title>recipe</title><g data-name="Layer 2"><path d="M22,2H9A3,3,0,0,0,6,5V27a3,3,0,0,0,3,3H22a3,3,0,0,0,3-3V5A3,3,0,0,0,22,2Zm1,25a1,1,0,0,1-1,1H9a1,1,0,0,1-1-1V5A1,1,0,0,1,9,4H22a1,1,0,0,1,1,1Z"/><path d="M11.15,9.46v2.08a.46.46,0,0,0,.46.46h2.77a.46.46,0,0,0,.46-.46V9.46a1.27,1.27,0,1,0-.7-2.39,1.15,1.15,0,0,0-2.29,0,1.26,1.26,0,0,0-.73-.14,1.27,1.27,0,0,0,0,2.52Z"/><path d="M20,15H11a1,1,0,0,0,0,2h9a1,1,0,0,0,0-2Z"/><path d="M20,19H11a1,1,0,0,0,0,2h9a1,1,0,0,0,0-2Z"/><path d="M20,23H11a1,1,0,0,0,0,2h9a1,1,0,0,0,0-2Z"/></g><text x="0" y="47" fill="#000000" font-size="5px" font-weight="bold" font-family="'Helvetica Neue', Helvetica, Arial-Unicode, Arial, Sans-serif">Created by Saepul Nahwan</text><text x="0" y="52" fill="#000000" font-size="5px" font-weight="bold" font-family="'Helvetica Neue', Helvetica, Arial-Unicode, Arial, Sans-serif">from the Noun Project</text></svg>